<?xml version="1.0" encoding="UTF-8"?>
<svg id="Layer_2" data-name="Layer 2" xmlns="http://www.w3.org/2000/svg" viewBox="0 0 635.96 115.75">
  <defs>
    <style>
      .cls-1 {
        fill: #fff;
      }

      .cls-1, .cls-2 {
        stroke-width: 0px;
      }

      .cls-2 {
        fill: #2bedd0;
        fill-rule: evenodd;
      }
    </style>
  </defs>
  <g id="Layer_1-2" data-name="Layer 1">
    <g>
      <path class="cls-1" d="M162.35,57.15c-3.31-5.95-7.85-10.73-13.48-14.23-5.61-3.47-11.84-5.24-18.5-5.24s-12.89,1.77-18.5,5.24c-5.63,3.5-10.16,8.28-13.48,14.23-3.32,5.95-5,12.56-5,19.64s1.68,13.61,5,19.53c3.32,5.93,7.85,10.7,13.48,14.19,2.81,1.74,5.76,3.05,8.85,3.92,3.09.88,6.32,1.32,9.65,1.32,6.67,0,12.89-1.76,18.5-5.24,5.63-3.49,10.17-8.26,13.48-14.19,3.32-5.92,5.01-12.49,5.01-19.53s-1.69-13.69-5.01-19.64ZM144.44,85.76c-1.41,2.77-3.36,5.01-5.79,6.67h-.01c-2.46,1.68-5.24,2.53-8.27,2.53-2.87,0-5.58-.82-8.07-2.44-2.46-1.61-4.45-3.81-5.92-6.56-1.46-2.74-2.2-5.82-2.2-9.17s.71-6.21,2.12-8.99c1.41-2.8,3.37-5.07,5.83-6.76,2.49-1.7,5.26-2.57,8.24-2.57s5.59.84,8.07,2.49c2.46,1.63,4.46,3.88,5.92,6.67s2.2,5.88,2.2,9.16-.71,6.2-2.12,8.97Z"/>
      <path class="cls-1" d="M236.21,1.83v46.6l-1.75-1.97c-5.09-5.72-11.33-8.62-18.55-8.62s-13.59,1.76-19.51,5.25c-5.93,3.49-10.7,8.27-14.19,14.2-3.49,5.91-5.26,12.47-5.26,19.5s1.77,13.6,5.26,19.51c3.49,5.93,8.27,10.71,14.19,14.2,5.92,3.48,12.49,5.25,19.51,5.25s13.46-2.9,18.55-8.63l1.75-1.96v8.62h20.79V1.83h-20.79ZM231.83,86.35c-1.6,2.9-3.8,5.24-6.54,6.94-2.76,1.72-5.81,2.58-9.07,2.58s-6.24-.87-8.97-2.58c-2.71-1.7-4.9-4.04-6.5-6.94-1.59-2.89-2.4-6.11-2.4-9.56s.81-6.66,2.4-9.56c1.6-2.89,3.78-5.23,6.5-6.93,2.73-1.72,5.75-2.59,8.97-2.59s6.31.87,9.07,2.58c2.74,1.71,4.94,4.05,6.54,6.94,1.59,2.9,2.4,6.12,2.4,9.56s-.81,6.67-2.4,9.56Z"/>
      <path class="cls-1" d="M428.17,37.98c-1.43-.09-3.31-.14-5.59-.14-7.11,0-13.3,2.9-18.4,8.62l-1.75,1.97v-8.47h-20.79v73.82h20.95v-36.99c0-5.46,1.37-10.04,4.07-13.59,2.77-3.64,6.75-5.49,11.82-5.49,3.53,0,6.74.92,9.58,2.74l3.27-21.97c-1.03-.25-2.09-.42-3.16-.5Z"/>
      <path class="cls-1" d="M495.75,39.81v8.63l-1.75-1.98c-5.15-5.82-11.39-8.78-18.55-8.78s-13.59,1.77-19.51,5.26c-5.93,3.49-10.7,8.28-14.19,14.23-3.49,5.94-5.26,12.54-5.26,19.62s1.77,13.6,5.26,19.51c3.49,5.93,8.27,10.71,14.19,14.2,5.92,3.48,12.48,5.25,19.51,5.25s13.4-2.95,18.55-8.78l1.75-1.97v8.78h20.79V39.81h-20.79ZM491.37,86.28c-1.6,2.89-3.79,5.24-6.53,6.97h-.01c-2.75,1.74-5.81,2.62-9.08,2.62s-6.23-.88-8.97-2.62c-2.71-1.73-4.89-4.07-6.49-6.97-1.59-2.9-2.4-6.09-2.4-9.49s.81-6.66,2.4-9.56c1.6-2.89,3.79-5.23,6.5-6.93,2.73-1.72,5.75-2.59,8.96-2.59s6.32.87,9.08,2.58c2.74,1.71,4.94,4.05,6.54,6.94,1.59,2.9,2.4,6.11,2.4,9.56s-.81,6.59-2.4,9.49Z"/>
      <path class="cls-1" d="M559.38,24.98c0-1.2.44-2.21,1.31-3.01.84-.78,1.87-1.18,3.03-1.18.86,0,1.69.27,2.46.78.37.25.69.54.96.88l14.8-14.52c-2.38-2.52-5.09-4.46-8.06-5.77-3.25-1.43-6.67-2.16-10.16-2.16-4.51,0-8.73,1.13-12.56,3.36-3.83,2.23-6.92,5.3-9.18,9.11-2.25,3.79-3.39,8.01-3.39,12.51v14.83h-7.14v20.79h7.14v53.18h20.79v-53.18h19.6v-20.79h-19.6v-14.83Z"/>
      <path class="cls-1" d="M623.04,39.81V15.96h-20.79v23.85h-9.87v20.79h9.87v53.18h20.79v-53.18h12.92v-20.79h-12.92Z"/>
      <g>
        <path class="cls-1" d="M25.75,30.58V1.83H0v111.95h25.75v-28.74l-13.19-13.21c-3.76-3.75-5.83-8.74-5.83-14.03s2.07-10.29,5.83-14.03l13.19-13.19Z"/>
        <path class="cls-2" d="M42.47,57.8l55.96,55.95h-31.8l-47.99-48c-4.39-4.38-4.39-11.52,0-15.9L66.63,1.85h31.8l-55.96,55.95Z"/>
      </g>
      <g>
        <path class="cls-1" d="M341.9,1.83v28.75l13.19,13.19c3.75,3.74,5.82,8.73,5.82,14.03s-2.07,10.28-5.82,14.03l-13.19,13.21v28.74h25.74V1.83h-25.74Z"/>
        <path class="cls-2" d="M349.01,65.75l-48,48h-31.8l55.96-55.95L269.21,1.85h31.8l48,48c4.38,4.38,4.38,11.52,0,15.9Z"/>
      </g>
    </g>
  </g>
</svg>